<svg id="Layer_1" data-name="Layer 1" xmlns="http://www.w3.org/2000/svg" viewBox="0 0 150.67 150.67"><defs><style>.cls-1{fill:#373234;}.cls-2{fill:#fff;}</style></defs><rect class="cls-1" width="150.67" height="150.67"/><path id="path9-5" class="cls-2" d="M273.12,392a31.05,31.05,0,0,0,1.66,3.78c3.84,7,11.24,11.3,23.73,12.5a10.69,10.69,0,0,0-4.22,6.89c-2.24,1.44-6.75,1.92-10.25.82-4.91-1.55-6.79-11.26-14.14-9.88-1.59.3-1.28,1.35.1,2.24a14.42,14.42,0,0,1,6,7.12c1.26,3,3.88,8.26,12.19,8.26a36.27,36.27,0,0,0,5.6-.4s.06,7.57.06,10.51c0,3.39-4.58,4.35-4.58,6,0,.64,1.52.7,2.74.7,2.41,0,7.42-2,7.42-5.53,0-2.8,0-12.22,0-13.87,0-3.6,1.93-4.74,1.93-4.74s.24,19.23-.46,21.81c-.82,3-2.31,2.6-2.31,3.95,0,2,6,.49,8-3.92,1.54-3.44.86-22.3.86-22.3l1.65,0s.09,8.63,0,12.58-.34,9.25,2.09,11.69c1.6,1.6,6.77,4.42,6.77,1.85,0-1.5-2.84-2.72-2.84-6.76v-18.6c2.27,0,1.93,6.11,1.93,6.11l.16,11.37s-.5,4.14,4.48,5.87c1.76.61,5.52.78,5.7-.25s-4.53-2.57-4.57-5.78c0-1.95.08-3.09.08-11.59s-1.14-11.64-5.12-14.14c12.28-1.26,19.88-4.3,23.58-12.43.29,0,1.51-3.8,1.35-3.8a46.11,46.11,0,0,0,1.37-11c0-11.66-5.6-15.78-6.68-17.72,1.58-8.83-.26-12.84-1.12-14.22-3.16-1.13-11,2.89-15.29,5.72-7-2-21.75-1.84-27.29.53-10.21-7.31-15.62-6.19-15.62-6.19s-3.49,6.25-.92,15.41c-3.36,4.28-5.87,7.31-5.87,15.34A37.77,37.77,0,0,0,273.12,392Z" transform="translate(-231.16 -320.66)"/></svg>