<svg id="Layer_1" data-name="Layer 1" xmlns="http://www.w3.org/2000/svg" viewBox="0 0 149.76 149.76"><defs><style>.cls-1{fill:#373234;}.cls-2{fill:#fff;}</style></defs><rect class="cls-1" width="149.76" height="149.76"/><path class="cls-2" d="M350.72,359.94a38.76,38.76,0,0,1-12.2,4.59,19.32,19.32,0,0,0-14-6,19.06,19.06,0,0,0-19.21,18.9,18.49,18.49,0,0,0,.5,4.31A54.84,54.84,0,0,1,266.21,362a18.62,18.62,0,0,0-2.6,9.51,18.84,18.84,0,0,0,8.55,15.73,19.34,19.34,0,0,1-8.7-2.37v.24a19,19,0,0,0,15.41,18.54,19.61,19.61,0,0,1-8.68.32,19.2,19.2,0,0,0,17.94,13.13,38.91,38.91,0,0,1-23.85,8.09,40.86,40.86,0,0,1-4.59-.26,55.1,55.1,0,0,0,29.45,8.49c35.32,0,54.63-28.8,54.63-53.78,0-.82,0-1.64,0-2.45a38.76,38.76,0,0,0,9.58-9.79,38.86,38.86,0,0,1-11,3A19,19,0,0,0,350.72,359.94Z" transform="translate(-231.62 -321.12)"/></svg>