<svg id="Layer_1" data-name="Layer 1" xmlns="http://www.w3.org/2000/svg" viewBox="0 0 147.03 147.03"><defs><style>.cls-1{fill:#373234;}.cls-2{fill:#fff;}</style></defs><rect class="cls-1" width="147.03" height="147.03"/><g id="Lozenge"><path class="cls-2" d="M351.52,376.84s-.89-6.61-3.64-9.51c-3.5-3.81-7.42-3.84-9.21-4.06-12.86-1-32.15-1-32.15-1h0s-19.29,0-32.15,1c-1.79.22-5.71.25-9.21,4.06-2.75,2.9-3.64,9.51-3.64,9.51a149.16,149.16,0,0,0-.93,15.51v7.26a149.48,149.48,0,0,0,.93,15.52s.89,6.6,3.64,9.5c3.5,3.82,8.1,3.7,10.14,4.1,7.35.73,31.24,1,31.24,1s19.31,0,32.17-1c1.79-.23,5.71-.25,9.21-4.07,2.75-2.9,3.64-9.5,3.64-9.5a149.48,149.48,0,0,0,.93-15.52v-7.26A149.16,149.16,0,0,0,351.52,376.84ZM297,408.43V381.51L321.84,395Z" transform="translate(-232.99 -322.49)"/></g></svg>